<svg xmlns="http://www.w3.org/2000/svg" viewBox="0 0 354.02 173.05"><defs><style>.cls-1{fill:none;}.cls-2,.cls-3,.cls-4{isolation:isolate;}.cls-3,.cls-4{font-size:20px;font-family:LatinWide, Wide Latin;}.cls-3{letter-spacing:1.4em;}</style></defs><title>Asset 8</title><g id="Layer_2" data-name="Layer 2"><g id="Layer_1-2" data-name="Layer 1"><path d="M63.11,63.25a15.83,15.83,0,0,1,5.3-11.9,13.52,13.52,0,0,0,0,23.8,15.83,15.83,0,0,1-5.3-11.9Zm25.8-16.9c.3-6.5,1-10.7,3.8-16.2a51.57,51.57,0,0,1,1.7-7h0c.8,2.4,1.5,4.8,2.3,7.2a4.71,4.71,0,0,0-.4,1.6c2.4,1.3-2.5,8.7-4.1,14.4,6.3.2,13.5,1.2,18.5,3.1h.1c-.9-1-2-2.3-3.1-3.8l1.8.6c3.8.8,7.7,1.7,11.5,2.7a5.66,5.66,0,0,1-1.2,2.1,15.7,15.7,0,0,0-7.7-1.3,27.73,27.73,0,0,1,11.7,4.8,2.56,2.56,0,0,0-2.4,2.7,6.84,6.84,0,0,1-3.3-.9,6.56,6.56,0,0,0-1.7-3.3,8,8,0,0,1,.8,4,15.62,15.62,0,0,0,11.1,2.3c3.4,2.3,8.8,2.3,12.8,4.1h.4c-.1,0-.1.1-.2.1.1,0,.1.1.2.1h-.4c-4,1.7-9.4,1.8-12.8,4.1a15.14,15.14,0,0,0-11.1,2.3,8,8,0,0,1-.8,4,6.56,6.56,0,0,0,1.7-3.3,6.84,6.84,0,0,1,3.3-.9c-.3,1,.7,2.5,2.4,2.7a27.73,27.73,0,0,1-11.7,4.8,16.94,16.94,0,0,0,7.7-1.3,5.66,5.66,0,0,1,1.2,2.1c-3.8,1-7.7,1.8-11.5,2.7a7,7,0,0,0-1.9.6c1.1-1.5,2.2-2.8,3.1-3.9h-.1c-4.9,1.8-12.2,2.9-18.5,3.1,1.6,5.7,6.5,13.1,4.1,14.4a7.49,7.49,0,0,0,.4,1.6c-.8,2.4-1.6,4.8-2.3,7.2a55.39,55.39,0,0,1-1.7-7c-2.8-5.5-3.6-9.7-3.8-16.2a9.7,9.7,0,0,1-1.7-.1c0,.1-.1.2-.1.4-.8,4.8,2.1,14.2.1,15-.4,5.5,4.8,11.3,2.4,15.7.4-.4,1,0,1.7,1a34.37,34.37,0,0,1-2.5,5.1c-.4-1.1-.7-2.1-1-3-3.1,1.1-3.4-14-3-17.7-1-5.7-.6-9.7.6-16.6a18.63,18.63,0,0,1-2.7-.5c0,.2.1.5.1.7a42,42,0,0,1,.1,15.4c-1,4.2-1.3,13.9-4.2,17.6-1.8,2.3-4.5,2.9-6.1.3,1.8.4,3.3-.5,4-3.6l-.5-1.1c2.5-4.5,3.6-9.3,4.5-14.2l-.7-.6c1.1-5.1,1.8-10.1.6-13.3a7.14,7.14,0,0,1,.2-2c-.2-.1-.5-.2-.7-.3h0c.2,5.1-.2,11.2-1.2,11.4-1.3,3.3-3.5,12.1-6.6,13.9-1.9,1.2-3.6.2-5.4-1.9,2.1.5,3.4.3,5-2l-.4-1.1c2.8-2.8,4.1-6.6,5.3-10.5l-.7-1.2a29.14,29.14,0,0,0,1.9-8.3h-.2a13.74,13.74,0,0,1-7.5-2.2,8.6,8.6,0,0,1-1.6.1,12.32,12.32,0,0,1-6.8-2h-1.8c.7,3.8.2,8.9-2.2,11.5-3.8-1.9-6.2-6.9-6.3-12.1a24.62,24.62,0,0,0,2.6-.2c.2,0,.3-.1.5-.1a11.64,11.64,0,0,0,3.8.6,13.86,13.86,0,0,1-3.6-1.2h-.5c-7.1,0-12.8-4.4-12.8-9.9s5.7-9.9,12.8-9.9h.5a10.92,10.92,0,0,1,3.6-1.2,11.64,11.64,0,0,0-3.8.6c-.2,0-.3-.1-.5-.1a22.75,22.75,0,0,0-2.6-.2c.1-5.2,2.5-10.2,6.3-12.1,2.4,2.6,2.9,7.8,2.2,11.5h1.8a12.32,12.32,0,0,1,6.8-2,8.6,8.6,0,0,1,1.6.1,14,14,0,0,1,7.5-2.2h.2a28.41,28.41,0,0,0-1.9-8.3l.7-1.2c-1.2-4-2.5-7.8-5.3-10.5l.4-1.1c-1.6-2.3-2.9-2.5-5-2,1.8-2.1,3.5-3.1,5.4-1.9,3.1,1.9,5.3,10.6,6.6,13.9,1.1.2,1.5,6.3,1.2,11.4h0c.2-.1.5-.2.7-.3a15,15,0,0,1-.2-2c1.2-3.2.5-8.2-.6-13.3l.7-.6c-.9-4.9-2-9.7-4.5-14.2l.5-1.1c-.7-3-2.2-3.9-4-3.6,1.6-2.6,4.3-2,6.1.3,2.9,3.7,3.1,13.4,4.2,17.6a42,42,0,0,1-.1,15.4,1.7,1.7,0,0,0-.1.7c.8-.2,1.7-.3,2.7-.5-1.2-6.9-1.6-10.9-.6-16.6-.4-3.7,0-18.8,3-17.7.3-.9.6-1.9,1-3a34.37,34.37,0,0,1,2.5,5.1c-.7.9-1.3,1.3-1.7,1,2.4,4.3-2.8,10.1-2.4,15.7,2,.8-.9,10.2-.1,15,0,.1.1.3.1.4a3.13,3.13,0,0,1,1.8-.4Zm6.8-27.2.9,2.7,1.8,5.4c3.1-4.4,8.1-8.4,6.2-12.5,1.4,1.8,10.2-6,12.1-11.3a26.34,26.34,0,0,0-10.2,7c2.4-3.9,6.1-6.7,10.5-8.8-5.6-1.8-11.5,5-14.5,9.2-2.3-1.2-4.8,3.3-6.8,8.3Zm.1,88.1c1.9,5,4.5,9.5,6.9,8.5,3,4.2,8.9,11,14.5,9.2a23.43,23.43,0,0,1-10.5-8.8,25.63,25.63,0,0,0,10.2,7c-1.9-5.3-10.6-13.1-12.1-11.3,1.9-4.2-3.1-8.1-6.2-12.5l-1.8,5.4a26,26,0,0,0-1,2.5ZM90,119.95c1.3,2.5,3.1,4.5,5.2,4.1a20.63,20.63,0,0,1-4.1-6,11.78,11.78,0,0,1-1.1,1.9Zm1.3-2.1a16.07,16.07,0,0,0,4,5,23.34,23.34,0,0,0-2.4-8.1c-.5,1-1,2.1-1.6,3.1ZM90,6.55c1.3-2.5,3.1-4.6,5.2-4.2a20.63,20.63,0,0,0-4.1,6A17.39,17.39,0,0,0,90,6.55Zm1.3,2.1a31.82,31.82,0,0,1,1.6,3.2,22.18,22.18,0,0,0,2.5-8.1,13,13,0,0,0-4.1,4.9Zm34.6,49.6a1.82,1.82,0,0,0,.5-1.1,1.55,1.55,0,0,0-.2-.8c2.1.3,6.7-.2,5.9-3.4-.6-2.5-11.4-5-22.5-7.4-10-2.2-12.3-16.5-16.5-28.3-4.4-12.3-11-22-30.2-11.7,19.6-12.1,26.4-1.9,31.3,11.2,4.2,11.3,6.8,24.8,15.8,27.2,1.9.5,6.5,1.5,11.1,2.7,6.4,1.6,13.1,3.5,13.3,6.8.2,4-5.3,5.1-8.5,4.8Zm0,10c3.2-.3,8.7.8,8.5,4.9-.2,3.2-6.8,5.2-13.3,6.8-4.7,1.1-9.3,2.2-11.1,2.7-9,2.4-11.6,15.8-15.8,27.2-4.9,13.1-11.7,23.4-31.3,11.2,19.2,10.3,25.8.6,30.2-11.7,4.3-11.8,6.5-26.1,16.5-28.3,11-2.4,21.9-5,22.5-7.4.8-3.2-3.8-3.7-5.9-3.4a1.55,1.55,0,0,0,.2-.8,1.85,1.85,0,0,0-.5-1.2Zm-3.4,1.3A1.5,1.5,0,1,0,124,68a1.47,1.47,0,0,0-1.5,1.5Zm0-12.6a1.5,1.5,0,1,0,1.5-1.5,1.37,1.37,0,0,0-1.5,1.5ZM121,45.85c-.8-3.6-4.3-7.4-5.4-11.1.4-2.2,2.1-3.7,1.8-6.1.1.2.3.3.5.5,4.8,4.7,10.1,8.5,16.3,10.4l.3-.9c9.9,8.2,16.2,27.8,33.8,16.1-5.4,1-16.4-3.9-24.9-19.3-4.6-3.2-7-2.6-8.9,2.4.8-5.7,3.8-7.2,9.4-3.7,11.5,1.4,28.8,14.7,33.1,18.8-2.3-33.6-58.3-53.6-67.5-37.8,5.5.8,4.6,6.7,6.5,11.2-1.9-3.2-.7-8-6.9-10.3-7.5,4.8-9.4,23.4,5.6,20-5.4,2.3-9.1,1.7-11.4-1.4a7.39,7.39,0,0,0,.1,3.6,14.32,14.32,0,0,0,4.3,4.2,8.66,8.66,0,0,0,2.4,1c3.6.7,7.3,1.5,10.9,2.4Zm-17.6,42.6a5.29,5.29,0,0,0-.1,3.5c2.3-3.1,6-3.7,11.4-1.4-15-3.4-13.1,15.1-5.6,20,6.1-2.3,5-7.1,6.9-10.3-1.9,4.6-1,10.5-6.5,11.2,9.2,15.8,65.2-4.2,67.5-37.8-4.2,4-21.6,17.3-33.1,18.8-5.6,3.5-8.6,2-9.4-3.7,1.9,5,4.3,5.6,8.9,2.4,8.6-15.4,19.6-20.4,24.9-19.3-17.6-11.8-24,7.8-33.8,16.1l-.3-.9c-6.1,1.9-11.5,5.7-16.3,10.4l-.5.5c.3-2.4-1.4-3.9-1.8-6.1,1.1-3.7,4.5-7.4,5.4-11-3.6.9-7.3,1.6-10.8,2.6a8.18,8.18,0,0,0-2.4,1,11.22,11.22,0,0,0-4.4,4Zm-25.6-39.2a15.69,15.69,0,0,0-8.4,14,15.5,15.5,0,0,0,8.4,14c-8.9-6.3-8.9-21.7,0-28Zm-29.7,14a10.46,10.46,0,0,1,3-7.3,8.44,8.44,0,0,0,0,14.6,10.46,10.46,0,0,1-3-7.3Zm11.4-9.5a11.1,11.1,0,0,0-5.9,9.5,10.9,10.9,0,0,0,5.9,9.5,13.37,13.37,0,0,1-3.8-9.5,13.81,13.81,0,0,1,3.8-9.5Zm40.9,23c-6.4-4.9-6.4-22.1,0-27C90.61,55,90.61,71.45,100.41,76.75Z"/><path d="M291.41,63.25a15.83,15.83,0,0,1-5.3,11.9,13.52,13.52,0,0,0,0-23.8,15.83,15.83,0,0,1,5.3,11.9Zm-25.8,16.9c-.3,6.5-1,10.7-3.8,16.2a51.57,51.57,0,0,1-1.7,7h0c-.8-2.4-1.5-4.8-2.3-7.2a4.71,4.71,0,0,0,.4-1.6c-2.4-1.3,2.5-8.7,4.1-14.4-6.3-.2-13.5-1.2-18.5-3.1h-.1c.9,1,2,2.3,3.1,3.8l-1.8-.6c-3.8-.8-7.7-1.7-11.5-2.7a5.66,5.66,0,0,1,1.2-2.1,15.7,15.7,0,0,0,7.7,1.3,27.73,27.73,0,0,1-11.7-4.8,2.56,2.56,0,0,0,2.4-2.7,6.84,6.84,0,0,1,3.3.9,6.56,6.56,0,0,0,1.7,3.3,8,8,0,0,1-.8-4,15.62,15.62,0,0,0-11.1-2.3c-3.4-2.3-8.8-2.3-12.8-4.1H213c.1,0,.1-.1.2-.1-.1,0-.1-.1-.2-.1h.4c4-1.7,9.4-1.8,12.8-4.1a15.14,15.14,0,0,0,11.1-2.3,8,8,0,0,1,.8-4,6.56,6.56,0,0,0-1.7,3.3,6.84,6.84,0,0,1-3.3.9c.3-1-.7-2.5-2.4-2.7a27.73,27.73,0,0,1,11.7-4.8,16.94,16.94,0,0,0-7.7,1.3,5.66,5.66,0,0,1-1.2-2.1c3.8-1,7.7-1.8,11.5-2.7a7,7,0,0,0,1.9-.6c-1.1,1.5-2.2,2.8-3.1,3.9h.1c4.9-1.8,12.2-2.9,18.5-3.1-1.6-5.7-6.5-13.1-4.1-14.4a7.49,7.49,0,0,0-.4-1.6c.8-2.4,1.6-4.8,2.3-7.2a55.39,55.39,0,0,1,1.7,7c2.8,5.5,3.6,9.7,3.8,16.2a9.7,9.7,0,0,1,1.7.1c0-.1.1-.2.1-.4.8-4.8-2.1-14.2-.1-15,.4-5.5-4.8-11.3-2.4-15.7-.4.4-1,0-1.7-1a34.37,34.37,0,0,1,2.5-5.1c.4,1.1.7,2.1,1,3,3.1-1.1,3.4,14,3,17.7,1,5.7.6,9.7-.6,16.6a18.63,18.63,0,0,1,2.7.5c0-.2-.1-.5-.1-.7a42,42,0,0,1-.1-15.4c1-4.2,1.3-13.9,4.2-17.6,1.8-2.3,4.5-2.9,6.1-.3-1.8-.4-3.3.5-4,3.6l.5,1.1c-2.5,4.5-3.6,9.3-4.5,14.2l.7.6c-1.1,5.1-1.8,10.1-.6,13.3a7.14,7.14,0,0,1-.2,2c.2.1.5.2.7.3h0c-.2-5.1.2-11.2,1.2-11.4,1.3-3.3,3.5-12.1,6.6-13.9,1.9-1.2,3.6-.2,5.4,1.9-2.1-.5-3.4-.3-5,2l.4,1.1c-2.8,2.8-4.1,6.6-5.3,10.5l.7,1.2a29.14,29.14,0,0,0-1.9,8.3h.2a13.74,13.74,0,0,1,7.5,2.2,8.6,8.6,0,0,1,1.6-.1,12.32,12.32,0,0,1,6.8,2h1.8c-.7-3.8-.2-8.9,2.2-11.5,3.8,1.9,6.2,6.9,6.3,12.1a24.62,24.62,0,0,0-2.6.2c-.2,0-.3.1-.5.1a11.64,11.64,0,0,0-3.8-.6,13.86,13.86,0,0,1,3.6,1.2h.5c7.1,0,12.8,4.4,12.8,9.9s-5.7,9.9-12.8,9.9h-.5a10.92,10.92,0,0,1-3.6,1.2,11.64,11.64,0,0,0,3.8-.6c.2,0,.3.1.5.1a22.75,22.75,0,0,0,2.6.2c-.1,5.2-2.5,10.2-6.3,12.1-2.4-2.6-2.9-7.8-2.2-11.5h-1.8a12.32,12.32,0,0,1-6.8,2,8.6,8.6,0,0,1-1.6-.1,14,14,0,0,1-7.5,2.2h-.2a28.41,28.41,0,0,0,1.9,8.3l-.7,1.2c1.2,4,2.5,7.8,5.3,10.5l-.4,1.1c1.6,2.3,2.9,2.5,5,2-1.8,2.1-3.5,3.1-5.4,1.9-3.1-1.9-5.3-10.6-6.6-13.9-1.1-.2-1.5-6.3-1.2-11.4h0c-.2.1-.5.2-.7.3a15,15,0,0,1,.2,2c-1.2,3.2-.5,8.2.6,13.3l-.7.6c.9,4.9,2,9.7,4.5,14.2l-.5,1.1c.7,3,2.2,3.9,4,3.6-1.6,2.6-4.3,2-6.1-.3-2.9-3.7-3.1-13.4-4.2-17.6a42,42,0,0,1,.1-15.4,1.7,1.7,0,0,0,.1-.7c-.8.2-1.7.3-2.7.5,1.2,6.9,1.6,10.9.6,16.6.4,3.7,0,18.8-3,17.7-.3.9-.6,1.9-1,3a34.37,34.37,0,0,1-2.5-5.1c.7-.9,1.3-1.3,1.7-1-2.4-4.3,2.8-10.1,2.4-15.7-2-.8.9-10.2.1-15,0-.1-.1-.3-.1-.4a3.13,3.13,0,0,1-1.8.4Zm-6.8,27.1-.9-2.7-1.8-5.4c-3.1,4.4-8.1,8.4-6.2,12.5-1.4-1.8-10.2,6-12.1,11.3a26.34,26.34,0,0,0,10.2-7c-2.4,3.9-6.1,6.7-10.5,8.8,5.6,1.8,11.5-5,14.5-9.2,2.3,1.3,4.8-3.2,6.8-8.3Zm0-88.1c-1.9-5-4.5-9.5-6.9-8.5-3-4.2-8.9-11-14.5-9.2a23.43,23.43,0,0,1,10.5,8.8,25.63,25.63,0,0,0-10.2-7c1.9,5.3,10.6,13.1,12.1,11.3-1.9,4.2,3.1,8.1,6.2,12.5l1.8-5.4a14.46,14.46,0,0,0,1-2.5Zm5.7-12.6c-1.3-2.5-3.1-4.5-5.2-4.1a20.63,20.63,0,0,1,4.1,6,11.78,11.78,0,0,1,1.1-1.9Zm-1.3,2.1a16.07,16.07,0,0,0-4-5,23.34,23.34,0,0,0,2.4,8.1c.5-1,1-2.1,1.6-3.1Zm1.3,111.3c-1.3,2.5-3.1,4.6-5.2,4.2a20.63,20.63,0,0,0,4.1-6,17.4,17.4,0,0,0,1.1,1.8Zm-1.3-2.1a31.82,31.82,0,0,1-1.6-3.2,22.18,22.18,0,0,0-2.5,8.1,13.81,13.81,0,0,0,4.1-4.9Zm-34.6-49.6a1.82,1.82,0,0,0-.5,1.1,1.55,1.55,0,0,0,.2.8c-2.1-.3-6.7.2-5.9,3.4.6,2.5,11.4,5,22.5,7.4,10,2.2,12.3,16.5,16.5,28.3,4.4,12.3,11,22,30.2,11.7-19.6,12.1-26.4,1.9-31.3-11.2-4.2-11.3-6.8-24.8-15.8-27.2-1.9-.5-6.5-1.5-11.1-2.7-6.4-1.6-13.1-3.5-13.3-6.8-.2-4,5.4-5.2,8.5-4.8Zm0-10c-3.2.3-8.7-.8-8.5-4.9.2-3.2,6.8-5.2,13.3-6.8,4.7-1.1,9.3-2.2,11.1-2.7,9-2.4,11.6-15.8,15.8-27.2,4.9-13.1,11.7-23.4,31.3-11.2-19.2-10.3-25.8-.6-30.2,11.7-4.3,11.8-6.5,26.1-16.5,28.3-11,2.4-21.9,5-22.5,7.4-.8,3.2,3.8,3.7,5.9,3.4a1.55,1.55,0,0,0-.2.8,1.85,1.85,0,0,0,.5,1.2Zm3.5-1.4a1.5,1.5,0,1,0-1.5,1.5,1.42,1.42,0,0,0,1.5-1.5Zm0,12.7a1.5,1.5,0,1,0-1.5,1.5,1.42,1.42,0,0,0,1.5-1.5Zm1.4,11.1c.8,3.6,4.3,7.4,5.4,11.1-.4,2.2-2.1,3.7-1.8,6.1-.1-.2-.3-.3-.5-.5-4.8-4.7-10.1-8.5-16.3-10.4l-.3.9c-9.9-8.2-16.2-27.8-33.8-16.1,5.4-1,16.4,3.9,24.9,19.3,4.6,3.2,7,2.6,8.9-2.4-.8,5.7-3.8,7.2-9.4,3.7-11.5-1.4-28.8-14.7-33.1-18.8,2.3,33.6,58.3,53.6,67.5,37.8-5.5-.8-4.6-6.7-6.5-11.2,1.9,3.2.7,8,6.9,10.3,7.5-4.8,9.4-23.4-5.6-20,5.4-2.3,9.1-1.7,11.4,1.4a7.39,7.39,0,0,0-.1-3.6,14.32,14.32,0,0,0-4.3-4.2,8.66,8.66,0,0,0-2.4-1l-10.9-2.4ZM251.11,38a5.29,5.29,0,0,0,.1-3.5c-2.3,3.1-6,3.7-11.4,1.4,15,3.4,13.1-15.1,5.6-20-6.1,2.3-5,7.1-6.9,10.3,1.9-4.6,1-10.5,6.5-11.2-9.2-15.8-65.2,4.2-67.5,37.8,4.2-4,21.6-17.3,33.1-18.8,5.6-3.5,8.6-2,9.4,3.7-1.9-5-4.3-5.6-8.9-2.4-8.6,15.4-19.6,20.4-24.9,19.3,17.6,11.8,24-7.8,33.8-16.1l.3.9c6.1-1.9,11.5-5.7,16.3-10.4l.5-.5c-.3,2.4,1.4,3.9,1.8,6.1-1.1,3.7-4.5,7.4-5.4,11,3.6-.9,7.3-1.6,10.8-2.6a8.18,8.18,0,0,0,2.4-1,11.22,11.22,0,0,0,4.4-4Zm25.6,39.2a15.69,15.69,0,0,0,8.4-14,15.5,15.5,0,0,0-8.4-14c8.9,6.3,8.9,21.7,0,28Zm29.7-14a10.46,10.46,0,0,1-3,7.3,8.44,8.44,0,0,0,0-14.6,10.46,10.46,0,0,1,3,7.3ZM295,72.75a11.1,11.1,0,0,0,5.9-9.5,10.9,10.9,0,0,0-5.9-9.5,13.37,13.37,0,0,1,3.8,9.5,13.81,13.81,0,0,1-3.8,9.5Zm-40.9-23c6.4,4.9,6.4,22.1,0,27C263.91,71.45,263.91,55,254.11,49.75Z"/><rect class="cls-1" x="0.01" y="140.35" width="354" height="32.7"/><g class="cls-2"><text class="cls-3" transform="translate(0 154.36)">PINCER</text><text class="cls-4" transform="translate(330 154.36)">S</text></g></g></g></svg>