<svg xmlns="http://www.w3.org/2000/svg" viewBox="0 0 134.91 94.96"><defs><style>.cls-1{fill:none;}.cls-2,.cls-3,.cls-4{isolation:isolate;}.cls-3,.cls-4{font-size:12px;font-family:LatinWide, Wide Latin;}.cls-3{letter-spacing:0.33em;}</style></defs><title>Asset 6</title><g id="Layer_2" data-name="Layer 2"><g id="Layer_1-2" data-name="Layer 1"><g id="crab"><rect class="cls-1" x="0.01" y="82.56" width="134.9" height="12.4"/><g class="cls-2"><text class="cls-3" transform="translate(0 90.98)">PINCER</text><text class="cls-4" transform="translate(120.5 90.98)">S</text></g><path d="M12.81,7.16c1.1-7.3,4.9-9.3,12.1-4.7,14.3,1.8,35.6,17.9,41.9,23.6v.5l.3-.3.3.3v-.5c6.3-5.7,27.6-21.8,41.9-23.6,7.2-4.5,11-2.6,12.1,4.7-2.5-6.4-5.5-7.2-11.4-3.1-11,19.7-25.1,26.1-32,24.8a26.71,26.71,0,0,0,10.6,4.5A27.93,27.93,0,0,0,78,37.86c6.9-1.3,21,5.1,32,24.8,5.9,4.1,8.9,3.3,11.4-3.1-1.1,7.3-4.9,9.3-12.1,4.7-14.3-1.8-35.6-17.9-41.9-23.6v-.5l-.3.3-.3-.3v.5c-6.3,5.7-27.6,21.8-41.9,23.6-7.2,4.5-11,2.6-12.1-4.7,2.4,6.4,5.5,7.2,11.4,3.1,11-19.7,25.1-26.1,32-24.8a26.71,26.71,0,0,0-10.6-4.5,26.71,26.71,0,0,0,10.6-4.5c-6.9,1.3-21-5.1-32-24.8C18.31-.14,15.21.66,12.81,7.16Z"/></g></g></g></svg>