<svg xmlns="http://www.w3.org/2000/svg" viewBox="0 0 659.31 389.7"><defs><style>.cls-1{font-size:65.56px;font-family:LatinWide, Wide Latin;}.cls-2{letter-spacing:0.17em;}</style></defs><title>Asset 1</title><g id="Layer_2" data-name="Layer 2"><g id="Layer_1-2" data-name="Layer 1"><path d="M223.2,163.37c-14.36-10-21.85-8.12-27.79,7.49,2.5-17.79,11.86-22.48,29.35-11.55,35.9,4.37,89.91,45.89,103.34,58.69C321.23,113.1,146.4,50.67,117.68,100.3c12.49,1.56,14.36,11.86,16.86,22.48.31.62.31,1.25.62,1.87,0,.62.31,1.25.31,1.87,0,.31.31.62.31,1.25v.31a56,56,0,0,0,1.86,6.33,4.58,4.58,0,0,1,.67,2.41c0,.19.05.38.08.57a1.22,1.22,0,0,1,.09.15,5.41,5.41,0,0,1,.44,1.18,5.06,5.06,0,0,1,.45.77,6.64,6.64,0,0,0,.87.85c.62.45,1.22.91,1.79,1.42a4.58,4.58,0,0,1,1.67,1.52c.25.21.53.43.81.71,15,14.67,31.53,26.54,50.89,32.47l.94-2.81c30.91,25.6,50.58,86.79,105.52,50.26C284.39,227.05,250,211.44,223.2,163.37Z"/><path d="M225.07,312.91c-17.48,10.93-26.85,6.24-29.35-11.55,5.93,15.61,13.42,17.48,27.79,7.49,26.85-48.08,61.19-63.69,77.74-60.25-54.95-36.84-74.93,24.35-105.52,50.26l-.94-2.81c-19,5.93-35.9,17.79-50.89,32.47L142.43,330a4.52,4.52,0,0,1-.76.61,4.61,4.61,0,0,1-1.11,1.06,4.8,4.8,0,0,1-1,1.26,4.57,4.57,0,0,1-.51,1.23l-.24.4a10,10,0,0,1-.25,1,9,9,0,0,1-.35.95,2.61,2.61,0,0,0-.14.43c0,.26,0,.22,0,0,0,0,0-.09,0-.14a5.7,5.7,0,0,1-.27.94,2,2,0,0,1,.13-.19c-5.93,13.74-3.12,31.22-18.42,34.65a4,4,0,0,1-1.87.31c28.72,49.33,203.55-13.11,210.73-118C315,267,260.66,308.54,225.07,312.91Z"/><path d="M520.09,337.26c.15.24.27.49.4.74a5.69,5.69,0,0,1-.62-2.24c-.58-1.09-1.16-2.17-1.76-3.24l-.17-.28a4.64,4.64,0,0,1-.86-.93l-.11-.12a4.51,4.51,0,0,1-1.24-.87v.06a1.76,1.76,0,0,0-.15-.22q-.15-.16-.28-.34c-.32-.31-.72-.59-1.13-1-15-14.67-31.53-26.54-50.89-32.47l-.94,2.81c-30.91-25.6-50.58-86.79-105.52-50.26,16.86-3.12,51.2,12.18,77.74,60.25,14.36,10,21.85,8.12,27.79-7.49-2.5,17.79-11.86,22.48-29.35,11.55-35.9-4.37-89.91-45.89-103.34-58.69,7.18,104.9,182,167.34,210.73,118C523.22,370,526.34,351.62,520.09,337.26Z"/><path d="M329.66,218.31c13.11-12.49,67.43-54,103.34-58.69,17.48-10.93,26.85-6.24,29.35,11.55-5.93-15.61-13.42-17.48-27.79-7.49-26.85,48.08-61.19,63.69-77.74,60.25,54.95,36.84,74.93-24.35,105.52-50.26l.94,2.81c19-5.93,35.9-17.79,50.89-32.47a9.59,9.59,0,0,0,1.75-1.44,8,8,0,0,1,.55-.66,6.82,6.82,0,0,1,.61-.57,5.08,5.08,0,0,1,1-1c0-.06.06-.12.1-.18a7.92,7.92,0,0,1,.73-1c.06-.14.14-.26.22-.39a5.63,5.63,0,0,1,.34-1.1,4.44,4.44,0,0,1,.13-.91,20.2,20.2,0,0,1,1.06-2.9c5.22-14.13,3.13-31.44,19.74-33.56C511.66,51,336.84,113.42,329.66,218.31Z"/><text class="cls-1" transform="translate(0 54.64)"><tspan class="cls-2">PINCER</tspan><tspan x="580.56" y="0">S</tspan></text></g></g></svg>