<svg xmlns="http://www.w3.org/2000/svg" viewBox="0 0 59.6 59.6"><title>Asset 2</title><g id="Layer_2" data-name="Layer 2"><g id="Layer_1-2" data-name="Layer 1"><g id="crab"><path d="M15.4,59.6c-4-.6-5.1-2.7-2.6-6.6,1-7.8,9.8-19.6,12.9-23H26c0-.1-.1-.1-.2-.2s.1-.1.1-.2h-.3c-3.1-3.4-12-15.2-12.9-23C10.2,2.7,11.3.6,15.3,0c-3.5,1.3-4,3-1.7,6.3,10.8,6,14.3,13.8,13.6,17.6a16.34,16.34,0,0,0,2.5-5.8,14.7,14.7,0,0,0,2.5,5.8C31.5,20.1,35,12.4,45.8,6.3,48,3.1,47.6,1.4,44.1,0c4,.6,5.1,2.7,2.6,6.6-1,7.8-9.8,19.6-12.9,23h-.3c0,.1.1.1.2.2s-.1.1-.1.2h.3c3.1,3.4,12,15.2,12.9,23,2.5,3.9,1.4,6-2.6,6.6,3.5-1.3,4-3,1.7-6.3-10.8-6-14.3-13.8-13.6-17.6a16.34,16.34,0,0,0-2.5,5.8,14.13,14.13,0,0,0-2.5-5.8c.7,3.8-2.8,11.5-13.6,17.6C11.4,56.5,11.9,58.3,15.4,59.6Z"/><path d="M0,15.5c.6-4,2.7-5.1,6.6-2.6,7.8,1,19.6,9.8,23,12.9v.3c.1,0,.1-.1.2-.2s.1.1.2.1v-.3c3.4-3.1,15.2-12,23-12.9,3.9-2.5,6-1.4,6.6,2.6-1.3-3.5-3-4-6.3-1.7C47.3,24.5,39.5,28,35.7,27.3a16.34,16.34,0,0,0,5.8,2.5,14.7,14.7,0,0,0-5.8,2.5c3.8-.7,11.5,2.8,17.6,13.6,3.2,2.2,4.9,1.8,6.3-1.7-.6,4-2.7,5.1-6.6,2.6-7.8-1-19.6-9.8-23-12.9v-.3c-.1,0-.1.1-.2.2s-.1-.1-.2-.1V34c-3.4,3.1-15.2,12-23,12.9C2.7,49.4.6,48.3,0,44.3c1.3,3.5,3,4,6.3,1.7,6-10.8,13.8-14.3,17.6-13.6a16.34,16.34,0,0,0-5.8-2.5,14.13,14.13,0,0,0,5.8-2.5c-3.8.7-11.5-2.8-17.6-13.6C3.1,11.5,1.4,11.9,0,15.5Z"/></g></g></g></svg>